<?xml version="1.0" encoding="UTF-8"?>
<svg width="3600pt" height="3600pt" version="1.1" viewBox="0 0 3600 3600" xmlns="http://www.w3.org/2000/svg">
 <g>
  <rect width="3600" height="3600" fill="#fff"/>
  <path d="m924.6 2919.9c-49.027 0-98.242-15.492-142.17-44.871-5.8555-3.9688-18.797-15.207-30.891-27.395-13.414-13.414-22.672-23.805-27.488-30.984-71.793-107.59-56.488-235.41 40.148-333.55 148.5-150.95 298.41-300.3 448.33-449.75l134.33-133.86c4.7227-4.7227 9.1641-9.7305 13.699-14.547 27.488-30.133 72.172-72.453 139.62-56.207 14.453-9.2578 37.406-29.566 42.32-39.391 6.8945-24.371 11.051-44.586 16.246-69.621 3.9688-19.176 8.5-41.188 15.398-70.094 3.9688-16.719 16.625-29.852 33.156-34.574 16.344-4.6289 34.102 0 46.289 12.09l318.72 318.72c12.09 12.09 16.719 29.758 11.996 46.289-4.7227 16.531-17.949 29.191-34.574 33.062-28.719 6.8008-50.445 11.336-69.527 15.207-25.316 5.2891-45.625 9.5391-72.266 17.191-8.125 4.25-28.055 27.016-37.219 41.469 17.477 72.547-28.34 114.21-56.488 139.71l-14.453 13.602-124.22 124.6c-152.56 153.12-305.12 306.25-459.19 457.96-56.59 55.559-122.9 84.938-191.77 84.938zm544.4-1000.6c-10.863 0-20.215 8.9727-38.73 29.285-5.4805 6.0469-11.051 12.09-16.719 17.758l-134.33 133.86c-149.63 149.25-299.36 298.41-447.67 449.08-65.273 66.312-75.762 144.62-28.812 215 2.457 3.2109 8.8789 9.8242 15.492 16.438 6.707 6.707 13.508 13.227 17.383 16.152 67.918 45.438 148.78 35.234 214.25-29.379 153.79-151.43 306.25-304.36 458.53-457.21l124.32-124.79c5.7617-5.7617 11.715-11.148 17.664-16.625 30.891-28.055 33.535-33.723 26.07-54.883-8.2188-23.426 3.0234-45.25 6.707-52.523 14.074-27.207 57.246-83.035 98.336-94.844 23.145-6.6133 41.941-10.957 62.535-15.305l-196.39-196.39c-4.3438 20.594-8.6914 39.297-15.305 62.441-12.754 44.492-89.078 108.16-129.7 108.16-5.3828 0-12.562-1.2266-17.664-2.9297-6.1406-2.1641-11.527-3.2969-15.965-3.2969z" fill="#70d258"/>
  <path d="m1835.8 1923.6c-12.562 0-24.562-5.0078-33.441-13.793l-111.09-111.18c-8.8789-8.8789-13.793-20.875-13.793-33.441 0-12.562 5.0078-24.562 13.887-33.441l192.71-192.23c159.36-159.08 318.06-317.4 476.48-476.2 6.6133-6.6133 13.793-13.32 20.875-19.934 19.836-18.516 38.543-35.992 44.965-53.184 56.68-152.09 180.24-221.05 289.25-281.79l38.637-21.82c18.422-10.676 41.754-7.6523 57.055 7.5586l95.785 95.883c16.246 16.344 18.324 41.848 5.0078 60.645-17.477 24.656-33.441 51.105-49.5 77.84-55.828 92.387-119.12 196.96-251.56 246.27-17.383 6.4219-34.953 25.41-53.562 45.25-6.5195 6.9922-13.035 13.887-19.555 20.5-168.14 167.77-335.91 335.91-504.25 504.72l-164.18 164.56c-9.1562 8.7812-21.152 13.785-33.715 13.785zm-44.305-158.41 44.305 44.398 130.83-131.12c168.43-168.81 336.2-336.95 504.34-504.82l17.285-18.137c23.992-25.695 51.293-54.977 89.551-69.242 101.74-37.879 151.43-119.97 203.76-206.69 10.297-17.098 20.594-33.914 31.078-50.445l-42.793-42.887-8.2188 4.6289c-99.473 55.449-202.25 112.79-246.74 232.38-14.266 38.07-43.266 65.18-68.957 89.176l-18.422 17.664c-158.51 158.89-317.4 317.3-476.76 476.38z" fill="#70d258"/>
 </g>
</svg>
