<?xml version="1.0" encoding="UTF-8"?>
<svg width="3600pt" height="3600pt" version="1.1" viewBox="0 0 3600 3600" xmlns="http://www.w3.org/2000/svg">
 <defs>
  <clipPath id="a">
   <path d="m666.43 666.43h2267.1v2267.1h-2267.1z"/>
  </clipPath>
 </defs>
 <rect width="3600" height="3600" fill="#fff"/>
 <g clip-path="url(#a)">
  <path d="m2560.5 707.16c-10.027-19.992-28.965-34.02-51.012-37.785-40.387-6.8281-81.902-0.44141-118.37 18.211s-65.945 48.574-84.047 85.32l-300.05 614.32c-0.26563 0.56641-0.67969 1.0195-0.98438 1.5859-0.30078 0.56641-0.37891 1.2109-0.67969 1.8125l-25.73 52.711c-72.559-27.605-152.63-28.184-225.58-1.6211-21.961-14.566-49.984-16.434-73.684-4.9141l-261.36 127.71c-19.465-7.5508-41.195-6.6445-59.965 2.4961l-628.98 307.16c-27.004 13.199-47.66 36.586-57.426 65.016-9.7656 28.43-7.8359 59.57 5.3555 86.578l57.812 118.38c13.141 27.062 36.523 47.773 64.977 57.543 28.453 9.7734 59.625 7.8047 86.621-5.4727l628.94-307.16c11.805-5.5938 21.906-14.23 29.262-25.023 7.3594-10.793 11.711-23.348 12.605-36.379l252.6-123.07c22.41-10.777 37.938-32.055 41.375-56.68 26.492-4.3672 53.68 0.54297 76.969 13.906 2.2656 1.2852 4.3086 2.0781 6.5 3.1758 0.75391 1.5117 1.1328 3.3633 2.0039 4.8359v-0.003906c13.625 23.625 18.695 51.219 14.359 78.141-24.367 3.707-45.457 18.906-56.68 40.848l-123.67 253.16c-26.145 2.4414-49.148 18.277-60.762 41.828l-307.05 628.87c-13.18 27.012-15.094 58.148-5.3203 86.566 9.7695 28.422 30.426 51.801 57.43 64.992l118.38 57.812c27.008 13.18 58.145 15.094 86.566 5.3242 28.418-9.7695 51.797-30.43 64.992-57.43l307.2-628.91h-0.003906c8.8438-17.984 10.121-38.762 3.5547-57.699-0.26563-0.71875-0.64063-1.2852-0.90625-1.9648l127.83-261.67v0.003906c11.305-23.629 9.4688-51.441-4.8398-73.379 26.203-73.031 25.535-153-1.8867-225.58l670.66-327.71h-0.003906c36.758-18.156 66.668-47.695 85.277-84.223 18.605-36.531 24.918-78.094 17.992-118.5-3.9766-21.84-17.965-40.555-37.785-50.555-19.617-10.043-42.816-10.254-62.609-0.56641l-526.7 257.28 256.94-526.17c10.055-19.855 10.012-43.32-0.11328-63.137zm-452.45 693.71c5.7344-0.050782 11.402 1.2422 16.551 3.7773 8.9648 4.3555 15.844 12.078 19.145 21.484 3.2969 9.4023 2.7461 19.73-1.5352 28.734-4.2773 9-11.941 15.945-21.32 19.32-9.3789 3.3789-19.711 2.9102-28.746-1.293-9.0352-4.207-16.047-11.812-19.5-21.164-3.4531-9.3477-3.0742-19.684 1.0586-28.754 3.0625-6.543 7.9141-12.09 13.988-16 6.0781-3.9102 13.133-6.0273 20.359-6.1055zm-25.695 237.52c22.223 51.848 26.336 109.67 11.676 164.14l-69.488-34.008v0.003906c9.6445-46.141 2.2461-94.207-20.82-135.31-1.6914-3.0664-2.9609-6.3438-3.7773-9.75-6.293-19.781-4.4883-41.25 5.0234-59.699l22.406-45.91h0.003906c8.9297 9.2539 19.367 16.918 30.871 22.672 11.734 5.5156 24.344 8.9414 37.254 10.125l-11.676 23.918c-9.8555 20.023-10.395 43.367-1.4727 63.82zm-1228.1 489.93c-9 4.3945-19.379 5.0391-28.852 1.7852-9.4727-3.25-17.266-10.133-21.668-19.129l-57.887-118.27c-4.4102-9.0039-5.0586-19.387-1.8047-28.871 3.2539-9.4805 10.141-17.281 19.148-21.684l628.98-307.16 90.988 186.29zm680.67-373.4-64.234-131.61 242.05-118.95 65.219 132.25zm296.46-179.59-33.629-68.957v-0.003906c48.895-13.559 100.77-11.762 148.61 5.1406l-9.2578 18.895v-0.003906c-7.2227 15.094-12.039 31.223-14.285 47.801-29.766-8.5391-61.195-9.5273-91.441-2.8711zm-173.36 1261.5c-4.3906 9.0469-12.203 15.973-21.715 19.242-9.5078 3.2695-19.93 2.6133-28.957-1.8242l-118.38-57.812c-8.9961-4.4023-15.875-12.195-19.129-21.668-3.25-9.4766-2.6094-19.852 1.7852-28.852l307.16-628.91 186.29 90.988zm318.95-707.27-132.25-64.652 117.89-242.55 133.12 64.234zm880.41-1019.3v-0.003906c2.5859 23.312-2.0742 46.852-13.344 67.418-11.273 20.57-28.605 37.164-49.645 47.527l-598.68 292.54 53.996-110.64zm-668.5 249.39v-0.003907c-17.789-19.105-42.012-30.965-68.016-33.289l254.15-520.38c10.422-21.02 27.035-38.336 47.598-49.625 20.566-11.289 44.094-16.004 67.422-13.516z" fill="#70d258"/>
 </g>
</svg>
