<?xml version="1.0" encoding="UTF-8"?>
<svg width="3600pt" height="3600pt" version="1.1" viewBox="0 0 3600 3600" xmlns="http://www.w3.org/2000/svg">
 <g>
  <rect width="3600" height="3600" fill="#fff"/>
  <path d="m1002 2516.4c-61.211-65.746-58.945-170.04 6.8008-231.25 24.938-22.672 54.41-36.273 88.418-43.074l875.12-818.44c-47.609-131.5-13.602-276.59 88.418-371.81 81.617-77.082 194.97-108.82 306.06-86.152l27.207 4.5352-199.51 185.91 22.672 222.18 219.91 36.273 199.51-185.91 4.5352 27.207c15.871 111.09-24.938 222.18-106.55 299.26-102.02 95.219-249.39 120.16-376.35 63.48l-877.39 820.71c-6.8008 34.008-24.938 63.48-47.609 86.152-65.746 61.211-170.04 56.676-231.25-9.0703zm1330.8-1523.5c-90.688-11.336-183.64 20.402-251.65 83.883-95.219 90.688-126.96 226.71-77.082 349.14l4.5352 9.0703-900.06 836.57h-4.5352c-29.473 4.5352-54.41 15.871-77.082 36.273-54.41 49.879-56.68 136.03-6.8008 190.44 49.879 54.41 136.03 56.68 190.44 6.8008 20.402-20.402 34.008-45.344 40.809-72.547v-4.5352l897.79-836.57 9.0703 4.5352c117.89 56.68 258.45 36.273 353.68-54.41 68.016-63.48 104.29-154.16 99.754-244.85l-167.77 156.43-256.19-43.074-24.938-258.45zm-1283.2 1482.7-22.672-90.688 68.016-65.746 90.688 24.938 22.672 90.688-68.016 65.746zm6.8008-83.883 15.871 58.945 58.945 15.871 43.074-43.074-13.602-56.684-58.945-15.871z" fill="#70d258"/>
  <path d="m1267.2 2210.4c-4.5352-6.8008-4.5352-15.871 0-20.402l668.81-623.47c6.8008-4.5352 15.871-4.5352 20.402 0 4.5352 6.8008 4.5352 15.871 0 20.402l-668.81 625.73c-6.8008 4.5352-15.867 4.5352-20.402-2.2656z" fill="#70d258"/>
  <path d="m1314.8 2262.5c-4.5352-6.8008-4.5352-15.871 0-20.402l668.81-623.47c6.8008-4.5352 15.871-4.5352 20.402 0 4.5352 6.8008 4.5352 15.871 0 20.402l-668.8 625.73c-4.5352 4.5352-13.605 4.5352-20.406-2.2656z" fill="#70d258"/>
 </g>
</svg>
