<?xml version="1.0" encoding="UTF-8"?>
<svg width="3600pt" height="3600pt" version="1.1" viewBox="0 0 3600 3600" xmlns="http://www.w3.org/2000/svg">
 <g>
  <rect width="3600" height="3600" fill="#fff"/>
  <path d="m1774.6 1172.5h0.054688zm-706.62 0c-128.79 0-233.57 104.78-233.57 233.57 0 128.77 104.78 233.55 233.57 233.55h700.78v-467.12zm706.62 502.23h-706.62c-148.16 0-268.68-120.53-268.68-268.66 0-148.16 120.52-268.68 268.68-268.68h706.62c16.137 0 29.27 13.113 29.27 29.234v478.87c0 16.117-13.133 29.234-29.27 29.234z" fill="#70d258"/>
  <path d="m2093.8 1590.1h-307.55c-9.6953 0-17.555-7.8594-17.555-17.555 0-9.6953 7.8594-17.555 17.555-17.555h289.98v-297.77h-289.98c-9.6953 0-17.555-7.8594-17.555-17.555 0-9.6953 7.8594-17.555 17.555-17.555h307.55c9.6953 0 17.555 7.8594 17.555 17.555v332.88c0 9.6953-7.8594 17.555-17.555 17.555z" fill="#70d258"/>
  <path d="m2755.5 1451.4h-661.64c-9.6953 0-17.574-7.8594-17.574-17.535 0-9.7148 7.875-17.574 17.574-17.574h661.64c5.4766 0 10.148-4.6562 10.148-10.168 0-5.5312-4.6758-10.203-10.148-10.203h-661.64c-9.6953 0-17.574-7.8594-17.574-17.555 0-9.6953 7.875-17.555 17.574-17.555h661.64c24.957 0 45.262 20.32 45.262 45.312 0 24.957-20.301 45.277-45.262 45.277z" fill="#70d258"/>
  <path d="m1069.1 2252.3c-1.6562 0-3.293-0.23828-5.0039-0.72656-9.2773-2.75-14.57-12.516-11.824-21.812l170.98-577.58c2.7461-9.2969 12.535-14.605 21.812-11.844 9.332 2.7461 14.625 12.516 11.84 21.809l-170.99 577.58c-2.2383 7.6211-9.2227 12.57-16.809 12.57zm294.18 0c-1.6367 0-3.3281-0.23828-4.9844-0.72656-9.3125-2.75-14.625-12.516-11.879-21.812l170.98-577.58c2.8008-9.2969 12.535-14.605 21.863-11.844 9.2773 2.7461 14.59 12.516 11.844 21.809l-171 577.58c-2.2734 7.6211-9.2227 12.57-16.824 12.57z" fill="#70d258"/>
  <path d="m966.08 2427.5h499.75v-175.12h-499.75zm517.31 35.109h-534.85c-9.6953 0-17.574-7.8594-17.574-17.555v-210.23c0-9.6953 7.8789-17.555 17.574-17.555h534.85c9.6953 0 17.574 7.8555 17.574 17.555v210.23c0 9.6953-7.8789 17.555-17.574 17.555z" fill="#70d258"/>
  <path d="m1497.6 1798.4c-8.7305 0-16.281-6.457-17.406-15.301-1.2383-9.625 5.5664-18.426 15.172-19.664 2.2734-0.30859 136.52-19.281 164.77-111.38 2.8398-9.2773 12.66-14.48 21.902-11.625 9.2773 2.8398 14.48 12.66 11.645 21.922-35.02 114.15-187.35 135.07-193.84 135.9-0.72656 0.10938-1.5117 0.14453-2.2383 0.14453z" fill="#70d258"/>
  <path d="m1229.6 1418.9h-281.18c-9.6797 0-17.555-7.8594-17.555-17.539 0-9.7148 7.875-17.57 17.555-17.57h281.18c9.6953 0 17.555 7.8594 17.555 17.57 0 9.6797-7.8594 17.539-17.555 17.539z" fill="#70d258"/>
  <path d="m1116.4 1495.4h-164.3c-9.6953 0-17.574-7.8594-17.574-17.574 0-9.6797 7.8789-17.555 17.574-17.555h164.3c9.6953 0 17.555 7.875 17.555 17.555 0 9.7148-7.8594 17.574-17.555 17.574z" fill="#70d258"/>
  <path d="m1120.1 1351.9h-171.63c-9.6797 0-17.555-7.8594-17.555-17.535 0-9.7148 7.875-17.574 17.555-17.574h171.63c9.6953 0 17.555 7.8594 17.555 17.574 0 9.6758-7.8594 17.535-17.555 17.535z" fill="#70d258"/>
  <path d="m2214.4 1451.4c-2.9648 0-5.9844-0.76172-8.7695-2.3672-8.3867-4.8359-11.262-15.59-6.4023-23.977l31.996-55.48c4.8398-8.4062 15.59-11.277 24.012-6.4219 8.3516 4.8359 11.242 15.57 6.3828 23.977l-31.996 55.48c-3.2383 5.6406-9.1523 8.7891-15.227 8.7891z" fill="#70d258"/>
  <path d="m2353.2 1451.4c-3.0195 0-6.0391-0.76172-8.7852-2.3672-8.4219-4.8359-11.297-15.59-6.457-23.977l32.051-55.48c4.8555-8.4062 15.59-11.277 24.012-6.4219 8.3672 4.8359 11.242 15.57 6.4023 23.977l-32.016 55.48c-3.293 5.6406-9.1875 8.7891-15.207 8.7891z" fill="#70d258"/>
  <path d="m2491.9 1451.4c-2.9648 0-5.9844-0.76172-8.7305-2.3672-8.4062-4.8359-11.297-15.59-6.4375-23.977l32.051-55.48c4.8398-8.4062 15.59-11.277 23.938-6.4219 8.4219 4.8359 11.316 15.57 6.457 23.977l-32.051 55.48c-3.2383 5.6406-9.1328 8.7891-15.227 8.7891z" fill="#70d258"/>
  <path d="m2630.7 1451.4c-2.9648 0-5.9844-0.76172-8.7656-2.3672-8.3672-4.8359-11.242-15.59-6.4023-23.977l32.051-55.48c4.8398-8.4062 15.535-11.277 23.957-6.4219 8.4062 4.8359 11.297 15.57 6.4375 23.977l-32.051 55.48c-3.2383 5.6406-9.1289 8.7891-15.227 8.7891z" fill="#70d258"/>
 </g>
</svg>
