<?xml version="1.0" encoding="UTF-8"?>
<svg width="3600pt" height="3600pt" version="1.1" viewBox="0 0 3600 3600" xmlns="http://www.w3.org/2000/svg">
 <g>
  <rect width="3600" height="3600" fill="#fff"/>
  <path d="m2804.3 1480.3-684.68-684.68c-52.145-52.145-122.43-77.082-194.97-72.547-72.547 4.5352-138.3 43.074-181.37 99.754l-319.67 435.29c-34.008-31.738-86.152-31.738-120.16 2.2656l-154.16 154.16c-88.418 88.418-106.55 226.71-45.344 335.54l106.55 190.44c15.871 29.473 9.0703 65.746-15.871 86.152l-362.74 306.06c-65.746 54.41-104.29 136.03-108.82 222.18-4.5352 86.152 29.473 170.04 90.688 228.98 61.211 61.211 145.1 92.953 228.98 90.688 86.152-4.5352 165.5-43.074 222.18-108.82l306.06-362.74c20.402-24.938 58.945-31.738 86.152-15.871l190.44 106.55c108.82 61.211 247.12 43.074 335.54-45.344l154.16-154.16c34.008-34.008 34.008-86.152 2.2656-120.16l435.29-319.66c58.945-43.074 95.219-108.82 99.754-181.37 6.8047-70.285-20.402-142.83-70.281-192.71zm-673.34 782.17-68.016 68.016c-34.008 34.008-88.418 40.809-129.23 18.137l-190.44-106.55c-102.02-58.949-228.98-34.012-303.79 52.141l-306.06 362.74c-24.938 31.738-63.48 47.609-104.29 47.609-72.547 0-133.76-61.211-133.76-133.76 0-40.809 18.137-77.082 47.609-102.02l362.74-306.06c88.418-74.816 111.09-201.78 54.41-303.8l-106.55-190.44c-22.672-43.074-15.871-95.219 18.137-129.23l68.016-68.016c13.602-13.602 38.543-13.602 52.145 0l739.09 736.82c13.602 15.871 13.602 38.543 0 54.414zm541.85-546.38-403.55 299.26c-29.473 22.672-70.281 18.137-97.488-6.8008l-580.39-580.39c-27.207-27.207-29.473-68.016-6.8008-97.488l297-403.55c18.137-24.938 43.074-29.473 56.68-31.738 13.602 0 38.543 0 58.945 22.672 20.402 20.402 27.207 52.145 15.871 81.617l-61.211 147.36c-13.602 34.008 20.402 70.281 54.41 54.41l156.43-65.746c22.672-9.0703 47.609-4.5352 65.746 13.602 18.137 18.137 22.672 43.074 13.602 65.746l-65.75 154.16c-13.602 34.008 20.402 68.016 54.41 54.41l156.43-65.746c22.672-9.0703 47.609-4.5352 65.746 13.602 18.137 18.137 22.672 43.074 13.602 65.746l-65.746 156.43c-13.602 34.008 20.402 70.281 54.41 54.41l147.36-61.211c27.207-11.336 58.945-4.5352 81.617 15.871 22.672 22.672 22.672 47.609 22.672 58.945-2.2656 13.605-9.0664 36.277-34.004 54.414z" fill="#70d258"/>
 </g>
</svg>
