<?xml version="1.0" encoding="UTF-8"?>
<svg width="3600pt" height="3600pt" version="1.1" viewBox="0 0 3600 3600" xmlns="http://www.w3.org/2000/svg">
 <g>
  <rect width="3600" height="3600" fill="#fff"/>
  <path d="m2873.2 1433.9c-27.867-28.148-55.734-56.301-84.074-83.695-15.207-14.738-29.758-25.602-44.586-32.969-54.035-27.301-95.504-14.641-122.61 2.9297-1.793-0.94531-3.2109-1.793-3.2109-1.793 9.6367-15.305 15.492-29.566 17.855-43.359 7.4609-41.66-5.9531-81.145-40.242-117.7-15.398-16.438-31.551-32.309-47.609-48.176l-11.809-11.617c-20.215-19.934-40.621-39.676-61.023-59.324-24.75-23.805-49.406-47.609-73.492-71.793-262.89-262.89-668.14-168.24-754.2-130.74-12.188 5.3828-40.621 17.758-39.484 47.043 1.0391 29.191 24.656 43.738 124.03 105.14 68.863 42.602 154.83 95.785 196.11 135.55 0.28516 0.28516 0.56641 0.56641 0.85156 0.75391-0.1875 0.28516-0.37891 0.47266-0.56641 0.66016-38.637 46.57-60.363 116.57-16.625 160.4l21.348 21.348-492.44 492.54c-32.684-29.852-86.059-30.699-118.84-0.94531-351.03 317.87-551.01 511.34-594.65 558.66-73.305 79.539-76.422 172.49-8.125 248.72 9.2578 10.297 42.887 44.777 77.367 79.254 34.48 34.387 68.863 68.109 79.633 77.742 36.465 32.684 75.949 49.215 117.32 49.215 56.773 0 102.68-31.363 131.4-57.719 39.582-36.746 235.12-237.48 558.29-594.56 28.812-31.738 29-78.121 4.1562-111.47l493.57-493.56 11.336 11.336c0.85156 0.75391 1.6992 1.6055 2.457 2.1719 0.75391 0.94531 1.6055 1.793 2.2656 2.5508 49.121 49.121 121.1 44.68 179.11-7.3672-52.805 61.59-50.445 135.55 5.9531 192.71 32.59 32.969 65.273 65.652 98.336 98.242 28.719 28.34 63.102 42.414 97.488 42.414 34.762 0 69.43-14.359 98.434-43.266 69.715-69.336 139.43-139.05 208.86-208.77 57.625-58.094 57.812-139.34 0.28516-197.43zm-1245.4 675.04c-321.55 355.28-514.93 553.84-553.56 589.84-31.836 29.094-92.48 56.395-146.99 7.7461-10.203-9.2578-43.359-41.754-76.703-75.098-33.348-33.25-65.652-66.312-74.625-76.234-15.586-17.477-63.102-70.469 7.4609-146.99 36.086-39.109 227.75-226.05 598.53-557.25 1.9844 0 5.7617 0.47266 8.9727 3.7773l236.54 236.54c4.9141 4.8203 5.1016 12.566 0.37891 17.668zm8.3125-116-140.66-140.66 491.69-491.88 140.75 140.75zm1196.3-401.76c-69.336 69.715-138.86 139.24-208.58 208.58-28.055 27.867-61.496 28.148-89.551 0.47266-32.777-32.211-65.273-64.801-97.582-97.488-28.719-29.191-29.566-58.758-2.3633-90.496 28.246-32.969 29.758-76.137 3.4961-105.14-14.547-15.871-34.668-23.898-54.977-23.898-18.324 0-36.84 6.5195-51.578 19.742-15.02 13.508-52.996 41.375-80.012 14.074-0.85156-0.75391-1.6992-1.6055-2.5508-2.1719-0.66016-0.94531-1.5117-1.793-2.1719-2.5508l-280.37-280.37c-6.0469-5.9531 0.1875-33.348 21.254-58.566 31.836-38.352 30.039-69.527-5.9531-104.2-47.137-45.344-136.79-100.79-208.77-145.38-16.91-10.391-35.426-21.82-51.766-32.309 119.88-32.309 424.9-74.816 628.19 128.57 24.465 24.465 49.5 48.555 74.531 72.738 20.215 19.461 40.43 38.918 60.363 58.566l11.809 11.715c15.492 15.207 30.891 30.418 45.625 46.098 22.484 23.992 23.145 39.957 20.973 52.711-0.47266 2.3633-1.9844 7.6523-7.5586 16.625-11.43 18.137-24.75 54.602 14.359 93.707 37.977 37.879 71.508 27.395 93.234 11.996 10.109-7.1797 23.051-11.996 48.367 0.66016 7.7461 3.8711 16.152 10.297 25.789 19.742 28.055 27.016 55.547 54.789 82.941 82.469l13.129 13.227c28.059 28.438 27.961 62.445-0.28125 90.879z" fill="#70d258"/>
 </g>
</svg>
