<?xml version="1.0" encoding="UTF-8"?>
<svg width="3600pt" height="3600pt" version="1.1" viewBox="0 0 3600 3600" xmlns="http://www.w3.org/2000/svg">
 <g>
  <rect width="3600" height="3600" fill="#fff"/>
  <path d="m2763.3 2162.7c-8.1602-29.926-32.648-69.828-103.61-89.098h0.003906c-83.105-21.176-168.62-31.391-254.38-30.379h-25.617v-186.36h30.832c9.0195 0 17.668-3.582 24.047-9.9609 6.3789-6.375 9.9609-15.027 9.9609-24.047v-8.3867c-0.0625-37.863-15.129-74.156-41.902-100.93-26.773-26.773-63.066-41.84-100.93-41.902h-126.05v-19.043c0-9.0195-3.5859-17.668-9.9609-24.047-6.3789-6.3789-15.027-9.9609-24.047-9.9609h-175.93c-9.0195 0-17.672 3.582-24.047 9.9609-6.3789 6.3789-9.9609 15.027-9.9609 24.047v19.043h-126.05c-37.879 0-74.211 15.051-101 41.836s-41.832 63.113-41.832 101v8.1602c0 9.0195 3.582 17.668 9.9609 24.047 6.375 6.3789 15.027 9.9609 24.047 9.9609h30.832v59.398c-141.02-34.461-261.18-63.254-306.29-73.91l-107.69-403.78-51.918-194.29c-13.789-51.227-41.766-97.516-80.711-133.54-2.1094-2.1367-4.3828-4.1094-6.8008-5.8945-36.711-32.07-81.191-53.957-129-63.48l-172.08-34.688c-11.641-1.7305-23.348 2.6797-30.953 11.66-7.6055 8.9805-10.027 21.258-6.4023 32.453 3.625 11.195 12.781 19.723 24.207 22.543l171.85 34.008h0.003906c29.578 5.7539 57.57 17.816 82.07 35.367-11.109 18.363-27.207 21.086-59.172 12.922l-181.37-38.996h-0.003906c-8.9023-2.1758-18.305-0.66797-26.082 4.1875-7.7734 4.8516-13.262 12.637-15.215 21.59-1.957 8.9531-0.21484 18.32 4.8281 25.973 5.043 7.6523 12.961 12.945 21.961 14.68l179.79 38.77v-0.003906c14.344 3.8828 29.121 5.9414 43.98 6.1211 30.73 1.1172 60.145-12.535 79.125-36.727 15.445 20.84 26.898 44.363 33.781 69.375l41.941 158.7c-68.016 12.922-202.23 54.637-232.61 185.68-19.27 83.203 14.965 162.1 51.012 245.76s74.137 172.07 58.492 269.79c-11.336 71.414 1.8125 129.23 38.996 171.85l-0.003906 0.003907c35.992 37.52 84.27 60.855 136.03 65.746 6.5273 54.906 29.848 106.46 66.781 147.61 36.93 41.152 85.668 69.895 139.55 82.297 53.883 12.406 110.28 7.8672 161.49-12.992 51.207-20.863 94.723-57.027 124.6-103.55 178.49-19.645 358.6-19.645 537.09 0 10.914 40.863 36.418 76.316 71.695 99.648 35.273 23.336 77.879 32.938 119.75 26.992 41.875-5.9492 80.121-27.031 107.5-59.262 27.387-32.234 42.016-73.383 41.121-115.67v-13.828c30.605-37.41 129.45-154.17 104.29-246.44zm-957.64-423.05h496.05c15.34 0.035157 30.301 4.7695 42.863 13.566 12.566 8.793 22.137 21.23 27.418 35.629h-636.61c5.2539-14.418 14.816-26.871 27.391-35.672 12.57-8.8008 27.547-13.52 42.891-13.523zm-9.9766 117.21h516v182.73c-84.25-4.9492-167.8-18.316-249.39-39.898-85.02-22.672-177.97-45.344-266.39-68.016zm-590.82 389.5c-22.672-26.527-30.832-65.746-22.672-116.08 18.594-117.21-24.938-216.96-62.344-307.65-32.875-76.402-61.211-142.38-47.156-204.04 22.672-95.219 132.18-125.6 184.09-134.89l161.64 611c-34.527 20.543-63.988 48.59-86.203 82.066-22.215 33.477-36.609 71.523-42.117 111.32-32.309-3.8867-62.352-18.59-85.246-41.715zm350.95 279.09c-53.211 0-104.25-21.141-141.88-58.77-37.625-37.625-58.766-88.66-58.766-141.88 0-53.211 21.141-104.25 58.766-141.88 37.629-37.629 88.664-58.766 141.88-58.766 53.215 0 104.25 21.137 141.88 58.766 37.625 37.629 58.766 88.664 58.766 141.88-0.0625 53.195-21.219 104.2-58.832 141.81-37.617 37.617-88.617 58.773-141.81 58.836zm929.53 0h0.003906c-27.84 0-54.539-11.062-74.227-30.746-19.684-19.684-30.742-46.383-30.742-74.223 0-27.84 11.059-54.539 30.742-74.227 19.688-19.684 46.387-30.742 74.227-30.742s54.539 11.059 74.223 30.742c19.688 19.688 30.746 46.387 30.746 74.227-0.0625 27.938-11.234 54.703-31.051 74.398-19.82 19.691-46.66 30.688-74.598 30.57zm147.59-194.52 0.003907-0.003906c-18.5-30.824-46.164-55.105-79.137-69.441-32.969-14.336-69.594-18.016-104.75-10.523-35.164 7.4922-67.105 25.781-91.367 52.312-24.262 26.531-39.629 59.977-43.957 95.668-165.84-16.738-332.93-16.738-498.77 0 6.8242-24.047 10.332-48.914 10.43-73.91-0.015625-55.641-17.34-109.9-49.566-155.26s-77.766-79.574-130.3-97.902c-52.535-18.324-109.47-19.855-162.92-4.3828l-40.809-150.31c113.36 27.207 385.41 92.273 603.51 148.5v0.003907c97.66 25.684 197.89 40.359 298.81 43.754h1.3594l57.359 1.8125v0.003906c80.652-1.1016 161.09 8.582 239.18 28.793 48.062 12.922 53.73 34.008 55.547 41.035 10.652 38.086-26.754 102.02-65.297 150.54z" fill="#70d258"/>
  <path d="m1555.8 2193.8c-34.984-0.24219-68.629 13.445-93.508 38.043-24.883 24.598-38.957 58.082-39.117 93.07-0.16016 34.984 13.605 68.598 38.258 93.422 24.652 24.824 58.172 38.82 93.156 38.902 34.988 0.082031 68.57-13.762 93.336-38.473 24.77-24.707 38.691-58.258 38.691-93.246 0-34.777-13.754-68.145-38.258-92.82-24.508-24.676-57.781-38.66-92.559-38.898zm0 195.43c-16.945 0.24219-33.289-6.2773-45.414-18.121-12.125-11.84-19.035-28.023-19.195-44.973-0.16016-16.945 6.4375-33.258 18.336-45.328 11.898-12.07 28.113-18.902 45.062-18.984 16.945-0.082031 33.23 6.5938 45.242 18.551 12.016 11.953 18.77 28.203 18.77 45.148 0.0625 16.781-6.5 32.906-18.258 44.879-11.758 11.969-27.762 18.816-44.543 19.055z" fill="#70d258"/>
  <path d="m1996.1 2176.3 223.99 68.016v-0.003906c3.2188 1.0625 6.5859 1.5977 9.9766 1.5898 11.062 0.14844 21.508-5.0898 28-14.047 6.4922-8.957 8.2227-20.516 4.6367-30.98-3.5859-10.465-12.039-18.535-22.66-21.629l-224.22-68.016-0.003907 0.003906c-8.6289-2.6758-17.969-1.7852-25.934 2.4727-7.9688 4.2617-13.895 11.535-16.461 20.199-2.5508 8.625-1.6016 17.91 2.6406 25.844s11.438 13.879 20.031 16.551z" fill="#70d258"/>
  <path d="m2236 2282.2-224.22-38.543c-9.0195-1.5312-18.281 0.58203-25.742 5.875-7.4609 5.293-12.516 13.332-14.047 22.352-1.5352 9.0195 0.57812 18.277 5.8711 25.742 5.293 7.4609 13.336 12.512 22.355 14.047l224.22 38.77c1.8828 0.22266 3.7852 0.22266 5.668 0 12.148 1.0508 23.938-4.457 30.926-14.453 6.9844-9.9961 8.1094-22.957 2.9453-34.008-5.1602-11.047-15.828-18.5-27.977-19.555z" fill="#70d258"/>
  <path d="m2489.9 2368.8c-13.906-1.3867-27.785 2.8359-38.559 11.734-10.77 8.8984-17.539 21.734-18.801 35.648-1.3281 13.949 2.9453 27.855 11.875 38.656 8.9297 10.797 21.781 17.609 35.734 18.93h5.2148c13.285-0.21484 26.004-5.4297 35.617-14.602 9.6133-9.1719 15.414-21.633 16.25-34.891 0.83594-13.262-3.3555-26.352-11.738-36.66-8.7305-10.953-21.629-17.77-35.594-18.816z" fill="#70d258"/>
 </g>
</svg>
